<svg width="23" height="24" viewBox="0 0 23 24" fill="none" xmlns="http://www.w3.org/2000/svg">
<path d="M17.4601 7.88584C17.4601 6.35816 16.8764 4.89306 15.8375 3.81283C14.7985 2.7326 13.3894 2.12573 11.9201 2.12573C10.4508 2.12573 9.04168 2.7326 8.00273 3.81283C6.96378 4.89306 6.3801 6.35816 6.3801 7.88584C6.3801 14.606 3.61011 16.526 3.61011 16.526H20.2301C20.2301 16.526 17.4601 14.606 17.4601 7.88584Z" stroke="white" stroke-width="1.49714" stroke-linecap="round" stroke-linejoin="round"/>
<path d="M13.5175 20.3661C13.3551 20.657 13.1221 20.8986 12.8418 21.0665C12.5615 21.2343 12.2436 21.3227 11.9201 21.3227C11.5966 21.3227 11.2788 21.2343 10.9984 21.0665C10.7181 20.8986 10.4851 20.657 10.3228 20.3661" stroke="white" stroke-width="1.49714" stroke-linecap="round" stroke-linejoin="round"/>
</svg>
