<svg width="23" height="24" viewBox="0 0 23 24" fill="none" xmlns="http://www.w3.org/2000/svg">
<path d="M16.5367 20.3257V18.4056C16.5367 17.3872 16.1476 16.4104 15.455 15.6903C14.7623 14.9701 13.8229 14.5656 12.8434 14.5656H5.45675C4.47722 14.5656 3.53781 14.9701 2.84518 15.6903C2.15254 16.4104 1.76343 17.3872 1.76343 18.4056V20.3257" stroke="white" stroke-width="1.49714" stroke-linecap="round" stroke-linejoin="round"/>
<path d="M9.15011 10.7254C11.1899 10.7254 12.8434 9.00617 12.8434 6.88536C12.8434 4.76455 11.1899 3.04529 9.15011 3.04529C7.11035 3.04529 5.45679 4.76455 5.45679 6.88536C5.45679 9.00617 7.11035 10.7254 9.15011 10.7254Z" stroke="white" stroke-width="1.49714" stroke-linecap="round" stroke-linejoin="round"/>
<path d="M22.0768 20.3256V18.4056C22.0761 17.5547 21.8038 16.7282 21.3024 16.0558C20.8011 15.3833 20.0991 14.903 19.3068 14.6903" stroke="white" stroke-width="1.49714" stroke-linecap="round" stroke-linejoin="round"/>
<path d="M15.6134 3.17017C16.4079 3.38166 17.112 3.86205 17.6149 4.53561C18.1177 5.20917 18.3906 6.03758 18.3906 6.89023C18.3906 7.74289 18.1177 8.5713 17.6149 9.24486C17.112 9.91842 16.4079 10.3988 15.6134 10.6103" stroke="white" stroke-width="1.49714" stroke-linecap="round" stroke-linejoin="round"/>
</svg>
